<svg width="232" height="70" viewBox="0 0 232 70" fill="none" xmlns="http://www.w3.org/2000/svg">
<rect width="232" height="70" rx="20" fill="#FBF8F8"/>
<g clip-path="url(#clip0_3_54)">
<path d="M96.216 18.912H98.392C98.136 33.696 98.552 43.392 99.672 43.424C99.96 43.424 100.216 42.176 100.344 40.416C100.696 40.928 101.496 41.568 101.88 41.824C101.272 45.312 100.344 46.24 99.544 46.24C96.312 46.24 96.152 35.648 96.216 18.912ZM84.824 18.912H97.4V21.056H84.824V18.912ZM86.488 25.44L88.152 24.544C91.288 29.92 94.872 36.96 96.376 41.152L94.488 42.304C93.08 38.08 89.592 30.816 86.488 25.44ZM93.592 23.264L95.544 23.744C93.816 31.168 90.84 38.752 87.096 43.488C86.68 43.008 85.976 42.368 85.368 41.984C89.016 37.76 92.024 30.304 93.592 23.264ZM83.8 18.912H86.04V29.92C86.04 34.976 85.496 42.016 82.04 46.656C81.72 46.208 80.824 45.376 80.376 45.088C83.512 40.768 83.8 34.624 83.8 29.92V18.912ZM72.76 23.328H82.584V25.536H72.76V23.328ZM76.728 17.12H79V46.528H76.728V17.12ZM76.792 24.64L78.296 25.184C77.368 30.208 75.384 36.416 73.272 39.584C73.016 38.88 72.408 37.824 71.992 37.184C74.008 34.432 75.96 29.024 76.792 24.64ZM78.936 26.592C79.704 27.552 82.648 31.936 83.256 32.96L81.816 34.848C81.016 33.12 78.68 29.056 77.784 27.648L78.936 26.592ZM109.528 33.92H128.92V46.528H126.424V35.84H111.928V46.56H109.528V33.92ZM110.968 38.72H127.256V40.512H110.968V38.72ZM110.968 43.52H127.512V45.44H110.968V43.52ZM104.824 24.512H133.208V26.688H104.824V24.512ZM117.72 20.096H120.184V33.056H117.72V20.096ZM116.536 25.024L118.456 25.824C115.544 29.984 110.424 33.824 105.784 35.68C105.432 35.104 104.728 34.24 104.184 33.76C108.792 32.128 113.912 28.64 116.536 25.024ZM121.336 25.088C124.056 28.448 129.336 31.84 133.88 33.376C133.336 33.856 132.632 34.72 132.28 35.328C127.736 33.504 122.488 29.76 119.448 25.92L121.336 25.088ZM127.896 17.376L129.72 19.296C124.12 20.704 115.384 21.536 108.024 21.824C107.96 21.248 107.672 20.352 107.416 19.776C114.648 19.424 123.224 18.624 127.896 17.376ZM136.792 34.752H165.208V36.896H136.792V34.752ZM145.976 20.704H158.936V22.88H145.976V20.704ZM149.752 31.296H152.184V46.56H149.752V31.296ZM148.6 35.68L150.52 36.512C147.64 40.608 142.456 44.224 137.752 46.048C137.4 45.472 136.696 44.576 136.152 44.096C140.824 42.56 145.976 39.232 148.6 35.68ZM153.24 35.648C155.8 39.264 160.92 42.4 165.816 43.84C165.304 44.32 164.568 45.248 164.216 45.856C159.288 44.128 154.136 40.608 151.288 36.512L153.24 35.648ZM136.408 23.552L137.432 21.952C139.256 22.464 141.656 23.36 142.904 24.096L141.88 25.92C140.632 25.152 138.264 24.16 136.408 23.552ZM138.584 18.976L139.576 17.376C141.432 17.92 143.832 18.88 145.08 19.584L144.056 21.376C142.84 20.64 140.44 19.584 138.584 18.976ZM137.208 31.744C138.808 30.4 141.08 28.128 143 25.952L144.472 27.456C142.744 29.44 140.728 31.584 138.968 33.408L137.208 31.744ZM157.624 20.704H159.992V28.704C159.992 29.408 160.024 29.76 160.184 29.888C160.344 29.984 160.568 30.048 160.888 30.048C161.144 30.048 161.72 30.048 162.04 30.048C162.392 30.048 162.744 29.984 162.904 29.888C163.096 29.792 163.256 29.536 163.352 29.056C163.416 28.512 163.448 27.36 163.48 25.856C163.96 26.304 164.856 26.72 165.56 26.976C165.496 28.384 165.4 29.952 165.176 30.528C164.952 31.168 164.6 31.52 164.088 31.776C163.64 31.968 162.904 32.064 162.296 32.064C161.816 32.064 160.792 32.064 160.408 32.064C159.704 32.064 158.872 31.904 158.36 31.488C157.848 31.04 157.624 30.496 157.624 28.608V20.704ZM151.448 17.152L153.88 17.12C153.624 25.728 151.352 30.24 145.24 32.992C144.984 32.512 144.088 31.552 143.576 31.168C149.464 28.96 151.352 24.8 151.448 17.152Z" fill="#570000"/>
</g>
<g clip-path="url(#clip1_3_54)">
<path d="M34.7323 34.5378L20.3341 43.6546L19.6573 42.5403C19.3718 41.951 19.0817 41.3662 19.0817 41.3662L34.5665 34.2247C34.4581 33.9935 34.3881 33.7462 34.3593 33.4926C32.209 33.8195 26.9922 34.5286 22.0424 36.2552C19.7046 37.0297 17.5018 38.1637 15.5132 39.6165C14.3158 40.4996 13.3244 41.6324 12.6078 42.9363C11.604 44.9347 12.1105 46.2101 12.2809 46.5693C12.4512 46.9284 13.28 48.0243 15.504 48.2545C16.9801 48.353 18.46 48.1299 19.8414 47.6007C22.1383 46.7184 24.286 45.4885 26.2094 43.9539C30.3811 40.7308 33.8068 36.7755 35.2526 35.1548C35.0556 34.9702 34.8809 34.7631 34.7323 34.5378Z" fill="#C3422D"/>
<path d="M37.1128 35.7763L37.7897 52.8128H37.3845C37.0872 52.8357 36.7885 52.8357 36.4912 52.8128L35.1881 52.7438L36.7399 35.767C36.7399 35.767 36.6892 35.7671 36.6155 35.744C36.5419 35.721 36.4406 35.744 36.3577 35.6934C36.1643 35.6934 36.0031 35.5598 35.9893 35.5829C35.2066 37.6088 33.2266 42.462 32.2597 47.6282C31.1408 53.6877 32.1077 57.2976 33.3095 59.1163C34.5343 61.0364 35.8788 61.1699 36.2748 61.2114C36.6708 61.2528 38.0199 61.064 39.3368 59.2867C40.6537 57.5094 41.7817 53.9916 40.9806 47.8446C40.2991 42.683 38.5586 37.6871 37.8772 35.6243C37.6338 35.7211 37.3747 35.7726 37.1128 35.7763Z" fill="#C3422D"/>
<path d="M58.1046 40.7399C57.2842 40.0416 56.4045 39.4161 55.4755 38.8705C54.2812 38.171 53.0395 37.5556 51.7597 37.0287C46.925 35.0304 41.7726 34.0635 39.6315 33.6168C39.635 33.6578 39.6235 33.6987 39.5992 33.7319C39.5624 33.7964 39.5992 33.9023 39.5256 33.9852C39.4887 34.174 39.3552 34.3259 39.3782 34.3351L54.4855 42.2917C54.4314 42.4158 54.3683 42.5358 54.2967 42.6508C54.1678 42.858 54.002 43.1389 53.8363 43.4198C53.6705 43.7006 53.4909 43.9723 53.3758 44.1795L53.1364 44.5064L39.194 34.6482C39.0337 34.8645 38.8465 35.0594 38.6369 35.2284C40.0182 36.9228 43.2414 41.0899 47.2012 44.4742C51.9162 48.4985 55.4893 49.4378 57.681 49.3365C58.5315 49.316 59.3636 49.085 60.103 48.6643C60.4509 48.4462 60.7478 48.1556 60.9732 47.8124C61.185 47.4763 61.7606 46.2331 60.8443 44.1749C60.197 42.841 59.2612 41.6677 58.1046 40.7399Z" fill="#C3422D"/>
<path d="M39.2907 31.6875L53.6935 22.5707L54.3658 23.6896C54.6513 24.2789 54.9413 24.8637 54.9413 24.8637L39.4565 32.0006C39.5644 32.2323 39.6358 32.4793 39.6683 32.7328C41.814 32.4058 47.0355 31.6967 51.9807 29.9701C54.3182 29.1971 56.521 28.0646 58.5098 26.6134C59.7031 25.737 60.6939 24.6142 61.4152 23.3212C62.4236 21.3229 61.9125 20.0474 61.7421 19.6929C61.5718 19.3383 60.7476 18.2333 58.519 18.003C57.0425 17.9045 55.5623 18.1292 54.1816 18.6615C51.8834 19.541 49.7353 20.7712 47.8136 22.3082C43.642 25.5314 40.2162 29.4866 38.7704 31.1074C38.9667 31.279 39.1414 31.4738 39.2907 31.6875Z" fill="#C3422D"/>
<path d="M15.8954 25.4899C16.718 26.1772 17.5976 26.7934 18.5245 27.3317C19.72 28.0321 20.9632 28.6475 22.245 29.1735C27.0751 31.1718 32.2275 32.1434 34.3685 32.59C34.3704 32.549 34.3831 32.5093 34.4054 32.4749C34.4376 32.4104 34.4054 32.2999 34.4791 32.2216C34.5159 32.0329 34.6448 31.8763 34.6218 31.8671L19.5329 23.929C19.5882 23.8054 19.6513 23.6855 19.7217 23.5698L20.1822 22.7963L20.6426 22.0365L20.882 21.7096L34.7968 31.5678C34.9558 31.3504 35.1432 31.1553 35.3539 30.9876C33.9726 29.2932 30.7494 25.1261 26.785 21.7419C22.07 17.7175 18.4969 16.7828 16.3052 16.8795C15.4544 16.902 14.6224 17.1345 13.8832 17.5564C13.545 17.7795 13.2591 18.0732 13.0452 18.4174C12.838 18.7535 12.2579 19.9921 13.1741 22.0503C13.8157 23.384 14.7451 24.5587 15.8954 25.4899Z" fill="#C3422D"/>
<path d="M36.8872 30.449L36.2103 13.4124H36.6155C36.9129 13.3918 37.2114 13.3918 37.5088 13.4124L38.8303 13.4677L37.2786 30.4444C37.2786 30.4444 37.3338 30.4444 37.4029 30.4444C37.472 30.4444 37.5779 30.4444 37.6653 30.495C37.8541 30.518 38.0199 30.6286 38.0291 30.6055C38.8119 28.5796 40.7918 23.7311 41.7587 18.5602C42.8776 12.5053 41.9153 8.89083 40.7089 7.04904C39.4841 5.12897 38.1396 5.00004 37.7436 4.9586C37.3476 4.91716 35.9985 5.10595 34.6817 6.88327C33.3648 8.6606 32.2367 12.1738 33.0378 18.3208C33.7193 23.4824 35.4598 28.4783 36.1413 30.5411C36.3827 30.4676 36.6351 30.4364 36.8872 30.449Z" fill="#C3422D"/>
</g>
<defs>
<clipPath id="clip0_3_54">
<rect width="200" height="54" fill="white" transform="translate(16 16)"/>
</clipPath>
<clipPath id="clip1_3_54">
<rect width="50" height="56.2299" fill="white" transform="translate(12 5)"/>
</clipPath>
</defs>
</svg>
